<svg xmlns="http://www.w3.org/2000/svg" viewBox="0 0 120 120">
  <rect width="120" height="120" rx="24" fill="transparent" />
  <path d="M30 29C30 20.163 37.163 13 46 13H77C85.837 13 93 20.163 93 29V62C93 70.837 85.837 78 77 78H46C37.163 78 30 70.837 30 62V29Z" fill="#553875" />
  <path d="M77 13H95C98.866 13 102 16.134 102 20V38C102 41.866 98.866 45 95 45H77V13Z" fill="#F57021" />
  <path d="M46 21H76C79.314 21 82 23.686 82 27V61C82 64.314 79.314 67 76 67H46C42.686 67 40 64.314 40 61V27C40 23.686 42.686 21 46 21Z" fill="#FFFFFF" opacity="0.08" />
  <path d="M50 26H70C73.314 26 76 28.686 76 32V60C76 63.314 73.314 66 70 66H50C46.686 66 44 63.314 44 60V32C44 28.686 46.686 26 50 26Z" fill="#553875" />
</svg>
