<svg xmlns="http://www.w3.org/2000/svg" width="1200" height="720" viewBox="0 0 1200 720" fill="none">
  <defs>
    <linearGradient id="bg" x1="0" y1="0" x2="1" y2="1">
      <stop offset="0%" stop-color="#4f46e5" />
      <stop offset="100%" stop-color="#7c3aed" />
    </linearGradient>
    <linearGradient id="glass" x1="0" y1="0" x2="1" y2="1">
      <stop offset="0%" stop-color="#a5b4fc" stop-opacity="0.9" />
      <stop offset="100%" stop-color="#eff6ff" stop-opacity="0.2" />
    </linearGradient>
  </defs>
  <rect width="1200" height="720" rx="48" fill="url(#bg)" />
  <rect x="60" y="60" width="1080" height="600" rx="36" fill="black" opacity="0.12" />
  <circle cx="320" cy="320" r="140" fill="url(#glass)" />
  <path d="M232 204C203 276 217 384 300 400" stroke="#f8fafc" stroke-width="24" stroke-linecap="round" />
  <path d="M398 412C460 414 504 367 530 322" stroke="#f8fafc" stroke-width="24" stroke-linecap="round" />
  <path d="M510 260C570 242 620 262 654 305" stroke="#f8fafc" stroke-width="24" stroke-linecap="round" />
  <rect x="780" y="220" width="300" height="280" rx="36" fill="#ffffff" opacity="0.18" />
  <path d="M834 260H946" stroke="#ffffff" stroke-width="18" stroke-linecap="round" />
  <path d="M834 320H946" stroke="#ffffff" stroke-width="18" stroke-linecap="round" />
  <path d="M834 380H946" stroke="#ffffff" stroke-width="18" stroke-linecap="round" />
  <rect x="342" y="410" width="160" height="180" rx="36" fill="#ffffff" opacity="0.18" />
  <path d="M382 496H470" stroke="#ffffff" stroke-width="18" stroke-linecap="round" />
  <path d="M426 452V540" stroke="#ffffff" stroke-width="18" stroke-linecap="round" />
  <path d="M930 450C930 505 888 547 834 547C780 547 738 505 738 450C738 395 780 353 834 353C888 353 930 395 930 450Z" fill="#ffffff" opacity="0.16" />
  <circle cx="834" cy="450" r="64" fill="#ffffff" opacity="0.36" />
  <path d="M834 420V480" stroke="#4f46e5" stroke-width="20" stroke-linecap="round" />
  <path d="M804 450H864" stroke="#4f46e5" stroke-width="20" stroke-linecap="round" />
</svg>
