<svg xmlns="http://www.w3.org/2000/svg" viewBox="0 0 120 120">
  <rect width="120" height="120" rx="24" fill="none" />
  <path d="M29.5 25.5C29.5 19.149 34.649 14 41 14H74C80.351 14 85.5 19.149 85.5 25.5V54.5C85.5 60.851 80.351 66 74 66H41C34.649 66 29.5 60.851 29.5 54.5V25.5Z" fill="#553875" />
  <path d="M74 14H92C96.418 14 100 17.582 100 22V40C100 44.418 96.418 48 92 48H74V14Z" fill="#F57021" />
  <path d="M56 20C56 15.582 59.582 12 64 12H79C83.418 12 87 15.582 87 20V46C87 50.418 83.418 54 79 54H64C59.582 54 56 50.418 56 46V20Z" fill="#FFFFFF" opacity="0.04" />
  <path d="M34.5 27.5C34.5 22.253 38.753 18 44 18H72.5C76.642 18 80 21.358 80 25.5V69C80 73.142 76.642 76.5 72.5 76.5H44C38.753 76.5 34.5 72.247 34.5 67V27.5Z" fill="#FFFFFF" opacity="0.08" />
  <path d="M42 26C42 22.686 44.686 20 48 20H62C65.314 20 68 22.686 68 26V66C68 69.314 65.314 72 62 72H48C44.686 72 42 69.314 42 66V26Z" fill="#553875" />
</svg>
